# xmcd CD database file
#
# Track frame offsets:
#	150
#	18270
#	36942
#
# Disc length: 736 seconds
#
# Revision: 0
# Processed by: cddbd v1.5.1PL0 Copyright (c) Steve Scherf et al.
# Submitted via: CDex 1.51
#
DISCID=1a02de03
DTITLE=小島麻由美 - 恋の極楽特急
DYEAR=1995
DGENRE=JPop
TTITLE0=恋の極楽特急
TTITLE1=DIBBI DUBBI DAA
TTITLE2=恋の極楽特急（オリジナル・カラオケ）
EXTD=YEAR: 1995
EXTT0=
EXTT1=
EXTT2=
PLAYORDER=
